PathFileType	4	(X/Y/Z)	Run_300 02
DataRate	CameraRate	NumFrames	NumMarkers	Units	OrigDataRate	OrigDataStartFrame	OrigNumFrames
120	120	5	42	mm	120	127	128
Frame#	Time	LASI			RASI			LPSI			RPSI			RTH1			RTH2			RTH3			LTH1			LTH2			LTH3			RTB1			RTB2			LTB1			LTB2			LTB3			RCAL			RTOE			RMT5			LCAL			LTOE			LMT5			LACR			RACR			CLAV			C7			RUA1			RUA2			RUA3			RLEL			RMEL			LUA1			LUA2			LUA3			LLEL			LMEL			RFAsuperior			RFAradius			RFAulna			LFAsuperior			LFAradius			LFAulna			RTB3			
		X1	Y1	Z1	X2	Y2	Z2	X3	Y3	Z3	X4	Y4	Z4	X5	Y5	Z5	X6	Y6	Z6	X7	Y7	Z7	X8	Y8	Z8	X9	Y9	Z9	X10	Y10	Z10	X11	Y11	Z11	X12	Y12	Z12	X13	Y13	Z13	X14	Y14	Z14	X15	Y15	Z15	X16	Y16	Z16	X17	Y17	Z17	X18	Y18	Z18	X19	Y19	Z19	X20	Y20	Z20	X21	Y21	Z21	X22	Y22	Z22	X23	Y23	Z23	X24	Y24	Z24	X25	Y25	Z25	X26	Y26	Z26	X27	Y27	Z27	X28	Y28	Z28	X29	Y29	Z29	X30	Y30	Z30	X31	Y31	Z31	X32	Y32	Z32	X33	Y33	Z33	X34	Y34	Z34	X35	Y35	Z35	X36	Y36	Z36	X37	Y37	Z37	X38	Y38	Z38	X39	Y39	Z39	X40	Y40	Z40	X41	Y41	Z41	X42	Y42	Z42	

101	1.966667	919.1065129999999	1014.346364	-452.595299	882.570393	1046.780086	-194.867532	728.323007	1053.005424	-388.848011	713.579056	1052.868075	-309.541998	855.705233	874.734241	-145.738314	949.517479	792.293938	-155.636328	927.748864	664.387548	-199.26869	844.437307	794.885252	-493.998938	878.11677	669.519055	-474.583202	796.800452	568.709082	-458.513021	1045.338982	403.059281	-299.634976	1016.91593	334.142406	-236.821704	691.778221	400.683568	-393.894706	600.114657	414.269318	-447.444135	488.337939	382.890138	-386.90169	859.223354	102.567559	-338.250085	1092.7988	75.598708	-355.688696	1022.874751	50.879993	-259.608331	355.670413	475.257868	-372.889647	330.631797	243.554459	-366.362872	303.570868	315.237157	-449.357146	968.4350439999999	1492.853611	-488.167068	879.850846	1493.37788	-153.842666	957.437447	1437.055066	-275.857024	845.099021	1532.631151	-336.299331	823.99454	1407.780894	-73.76930299999999	795.4703009999999	1323.218992	-70.603605	722.067421	1346.765331	-55.185162	650.216067	1235.80134	-0.523991	633.4866919999999	1221.019053	-79.64290099999999	960.403574	1397.956266	-562.585059	954.928331	1326.11716	-553.0433849999999	863.185204	1329.862348	-587.964613	848.20117	1170.116112	-641.391328	782.941949	1168.632646	-580.586144	739.972046	1177.648604	13.111146	883.5775180000001	1086.917454	-56.815605	853.940364	1055.138319	0.865129	932.699243	1154.609267	-591.8495820000001	1032.565115	1157.724863	-438.513713	1038.812315	1090.192475	-465.099357	1005.40993	240.77621	-313.992183	
102	1.975	916.212801	1010.53094	-452.394314	880.033816	1044.664941	-194.802034	725.5716640000001	1048.823416	-390.350419	711.065238	1048.941366	-311.788465	851.31525	871.22606	-146.207968	943.314333	787.276253	-154.52735	920.712024	660.162462	-200.494129	848.73162	790.489651	-494.240218	888.619607	666.562034	-475.498026	811.2304820000001	563.495418	-458.130247	1033.376373	396.918408	-298.321123	1001.551967	328.204597	-235.983618	710.941472	397.104896	-395.587865	620.325768	412.654716	-448.933853	507.714813	383.554819	-388.921299	834.779552	102.799478	-338.297055	1068.562036	74.031266	-355.264899	998.097111	50.254915	-259.21097	374.851711	478.315897	-375.344622	349.423688	246.493831	-370.728337	323.79563	318.939068	-453.634613	966.234387	1487.377714	-489.708514	879.897181	1488.614147	-153.659241	957.2893319999999	1432.226009	-276.587365	845.37405	1529.364942	-336.273743	827.645169	1399.275044	-72.743944	802.071326	1313.686328	-69.17003	728.556972	1334.445059	-50.168169	662.9771	1220.956741	5.790851	644.4213109999999	1204.945938	-72.486566	956.925894	1391.666337	-563.25969	950.885681	1319.980571	-553.396531	859.577392	1324.273664	-588.927757	843.10119	1164.400355	-641.255554	778.365779	1163.46327	-580.204533	754.302455	1164.056185	18.306492	897.665152	1075.156968	-53.246532	869.7184580000001	1044.070844	5.625776	927.2924850000001	1144.446271	-593.279013	1029.019705	1140.426029	-440.495303	1032.786157	1073.578046	-468.854885	986.2966300000001	236.295503	-313.444016	
103	1.983333	913.555603	1007.365647	-453.007453	877.606046	1042.789135	-195.228975	723.1089940000001	1045.875785	-391.438761	708.6281739999999	1046.653896	-313.187466	847.251356	868.650841	-146.242768	936.221039	782.332887	-153.532899	912.469191	656.590359	-201.350865	852.740868	786.620692	-494.527695	899.24271	664.088006	-476.556756	826.405303	559.164955	-457.921224	1019.874381	390.621749	-297.12279	984.839382	322.405967	-235.513282	731.001357	393.921141	-397.01113	641.331406	411.064274	-450.354778	528.106633	383.357941	-390.910206	810.070149	102.986255	-338.336171	1043.972831	72.92295900000001	-354.944561	973.181134	49.889497	-259.01364	394.326863	479.692759	-377.626371	370.153956	247.550676	-375.188165	345.536043	320.651921	-457.813326	963.830791	1482.757083	-490.943681	880.325196	1484.330596	-153.596195	956.921587	1427.704843	-277.673344	844.947935	1526.260784	-336.526456	830.825495	1393.075641	-72.45394400000001	809.210965	1305.778848	-67.687505	735.265023	1323.558244	-46.762744	676.921918	1207.344713	11.781666	656.659313	1189.96163	-65.775038	952.801959	1387.112467	-564.061854	946.678995	1315.309997	-554.063577	855.467323	1319.98	-589.368877	838.014033	1159.71055	-641.022991	773.389487	1159.194684	-579.588755	770.366362	1151.978248	22.628387	912.931506	1064.755576	-50.291926	886.532272	1034.254573	9.783756	921.54567	1135.491229	-594.083186	1025.034528	1123.55381	-442.735755	1026.30783	1057.595104	-473.133063	966.191878	232.164685	-313.265386	
104	1.991667	911.146105	1004.651144	-454.63181	875.190941	1041.247743	-195.900268	720.808225	1043.792151	-392.074479	706.164143	1045.588324	-313.785017	843.26237	867.310716	-145.84672	928.926569	778.357672	-152.62902	903.620558	653.888067	-201.281004	856.419582	783.329571	-494.882374	909.8768209999999	662.2790199999999	-477.506881	842.298331	555.620091	-457.961462	1005.133576	385.131503	-296.14999	967.643389	317.691699	-235.075421	751.880028	391.565109	-397.891223	662.916883	409.525228	-451.639129	549.274773	382.364219	-392.842255	785.3125680000001	103.340237	-338.245572	1019.153884	72.312451	-354.696351	948.20516	49.638327	-258.864584	413.935571	479.362489	-379.776219	392.450046	246.791042	-379.562967	368.401673	320.403421	-461.839902	961.149862	1479.008451	-492.053471	881.30088	1480.382023	-153.567405	956.403059	1423.858115	-278.948679	843.893099	1523.43568	-336.605922	833.822031	1388.613769	-72.489835	816.788604	1299.417401	-66.21500399999999	742.154927	1313.983099	-45.160498	691.6702759999999	1195.425732	17.363483	669.6607749999999	1176.542488	-59.547226	948.188408	1383.948917	-565.11594	942.347927	1311.834644	-555.071696	850.9478329999999	1316.773826	-589.308207	832.9280240000001	1156.194716	-640.818847	768.093601	1155.965456	-578.979725	787.660248	1142.082735	26.064477	929.18596	1056.620788	-48.150906	904.249567	1026.334145	12.953428	915.878282	1128.488778	-594.057532	1020.631796	1107.754861	-445.300719	1019.276395	1042.855685	-477.783592	945.647607	229.018015	-313.087281	
105	2	908.868588	1002.386396	-456.727434	872.843398	1040.055422	-196.640393	718.572355	1042.336559	-392.37479	703.671013	1045.306783	-313.896385	838.98171	866.932515	-145.283337	921.8915050000001	775.690193	-151.828583	894.548351	651.8505249999999	-200.139753	859.843349	780.859122	-495.278291	920.546886	661.610226	-478.166791	858.71025	553.123469	-458.201903	989.3902	380.816619	-295.224475	950.280083	314.263106	-234.303072	773.379785	390.545677	-398.328266	684.872399	408.158049	-452.76476	571.011059	380.704476	-394.648182	760.663985	103.936125	-338.013607	994.285659	71.912093	-354.382905	923.207309	49.31152	-258.620379	433.490752	477.299511	-381.836246	416.074729	244.291887	-383.674653	392.099073	318.198722	-465.67089	958.121924	1476.119743	-493.202083	882.864635	1476.826912	-153.521797	955.837862	1420.988773	-280.22591	842.639448	1521.186474	-336.173902	837.20358	1384.911341	-72.381108	824.607932	1294.29626	-64.88596	749.264938	1305.562101	-44.881671	706.653772	1185.489812	22.436555	682.8041919999999	1164.99557	-53.800273	943.310898	1381.694569	-566.403307	937.8763279999999	1309.243982	-556.366303	846.138329	1314.403046	-588.9653960000001	827.646223	1153.925387	-640.838764	762.592807	1153.825575	-578.76129	805.2187709999999	1134.678865	28.732131	945.984858	1051.436594	-47.139769	922.60783	1020.840075	14.695339	910.55349	1123.877787	-593.521826	1015.751956	1093.778926	-448.245334	1011.525829	1030.014866	-482.54563	924.939757	226.811509	-312.653858	
